<svg width="27" height="31" viewBox="0 0 27 31" fill="none" xmlns="http://www.w3.org/2000/svg">
<path d="M25.7591 30.4781V25.1687C25.7591 24.1318 25.5387 23.2114 25.1071 22.3966L25.7591 30.4781ZM25.7591 30.4781H1.23828V25.1687C1.23828 24.1319 1.4591 23.2116 1.89158 22.3969L1.89178 22.3965C2.32536 21.5781 2.89957 20.9739 3.6122 20.5649C5.18103 19.6643 6.7942 18.9907 8.45222 18.542C10.1113 18.093 11.7931 17.8687 13.4987 17.8687C15.2043 17.8687 16.8861 18.093 18.5452 18.542C20.2032 18.9907 21.8164 19.6643 23.3852 20.5649C24.0978 20.9739 24.6725 21.5781 25.1071 22.3965L25.7591 30.4781ZM13.4987 14.5125C11.8004 14.5125 10.3658 13.8604 9.1677 12.5254C7.96768 11.1882 7.36328 9.56281 7.36328 7.61872C7.36328 5.67464 7.96768 4.04922 9.1677 2.71206C10.3658 1.37703 11.8004 0.724976 13.4987 0.724976C15.197 0.724976 16.6316 1.37703 17.8297 2.71206C19.0297 4.04922 19.6341 5.67464 19.6341 7.61872C19.6341 9.56281 19.0297 11.1882 17.8297 12.5254C16.6316 13.8604 15.197 14.5125 13.4987 14.5125Z" fill="#3B4FE4" stroke="#3B4FE4"/>
</svg>
